<svg width="18" height="25" viewBox="0 0 18 25" fill="none" xmlns="http://www.w3.org/2000/svg">
<path d="M8.41841 4.12014L8.66769 3.9772L8.91697 4.12014L17.135 8.85237L8.91697 13.5114L8.67045 13.6502L8.42393 13.5114L0.203125 8.84961L8.41841 4.12014ZM8.66976 12.5018L15.12 8.84547L8.667 5.13108L2.2181 8.8427L8.66976 12.5018Z" fill="#585858"/>
<path d="M8.67045 17.3328L8.91697 17.194L17.135 12.535L15.12 12.5281L8.66976 16.1845L2.2181 12.5253L0.203125 12.5322L8.42393 17.194L8.67045 17.3328Z" fill="black"/>
<path d="M8.67045 21.1033L8.91697 20.9645L17.135 16.3055L15.12 16.2986L8.66976 19.955L2.2181 16.2958L0.203125 16.3027L8.42393 20.9645L8.67045 21.1033Z" fill="black"/>
</svg>
