<svg width="294" height="419" viewBox="0 0 294 419" fill="none" xmlns="http://www.w3.org/2000/svg">
<path d="M267.493 412.789H13.4928V346.268L17.4021 336.279L31.9434 325.836L61.4807 293.484L62.9758 283.5L60.5444 265.684L44.8754 260.285L13.4928 221.955V215.747L22.9992 193.7V139.973L13.4928 86.8405L15.8694 65.7654L22.9992 56.8603L37.5559 63.094L65.481 98.12L135.372 135.071L179.628 25.2612L210.073 47.0554L172.727 154.822L192.927 165.501L187.876 176.78V188.95L195.303 201.417L224.12 217.743L229.467 230.21L216.693 243.567L205.107 245.645V250.394L198.868 255.44L190.55 257.815L150.148 255.44L159.951 277.406L190.55 302.34L235.408 315.697L251.748 328.164L267.493 412.789Z" fill="white"/>
<path d="M0.500076 408.603H293.5V418.953H0.500076V408.603Z" fill="black"/>
<path d="M60.8204 277.549C61.4991 282.748 61.1032 288.192 60.8204 290.264H61.9514C62.2342 289.934 62.9977 288.003 63.7895 282.917C64.5812 277.831 62.894 270.532 61.9514 267.519H59.265C59.5007 268.696 60.1416 272.35 60.8204 277.549Z" fill="black"/>
<path d="M208.434 305.198C171.513 296.471 155.645 268.464 152.337 255.902C152.337 255.902 145.975 255.947 146.012 256.604C146.803 270.648 169.753 304.478 208.434 310.804C239.829 315.938 250.436 326.551 251.688 345.956C252.506 358.636 259.918 399.61 262.253 408.603H281.086C268.963 393.116 263.519 369.163 259.549 347.345C254.586 320.073 254.586 316.107 208.434 305.198Z" fill="black"/>
<path d="M210.544 197.44C216.521 198.604 219.439 204.939 220.345 207.815C220.992 207.233 222.623 205.31 221.606 203.064C219.763 198.992 218.501 197.731 212.582 195.113C209.216 193.625 195.438 191.591 189.098 190.168L190.457 193.562C194.532 194.467 204.566 196.277 210.544 197.44Z" fill="black"/>
<path d="M194.024 169.25C189.649 176.063 184.351 192.586 199.96 202.794C215.568 213.003 226.723 217.445 230.35 218.39C233.464 219.139 238.178 222.384 232.123 229.379C224.556 238.122 217.834 247.787 206.246 247.787C207.459 248.613 207.555 250.271 203.625 252.654C197.003 256.672 194.402 259.352 181.749 258.761C169.097 258.17 151.257 255.506 139.852 259.608C128.447 263.711 121.52 264.571 116.805 270.345C113.034 274.964 101.413 295.698 96.4454 305.524H91.9209C96.4825 294.574 107.769 275.699 113.201 267.845C116.997 262.357 128.965 258.595 136.309 256.122C151.517 251.001 168.906 256.122 181.749 256.122C188.801 256.122 190.81 258.212 200.604 252.24C203.043 250.754 199.388 248.98 195.959 248.096L140.661 235.499C160.071 237.819 194.709 243.897 204.697 243.897C216.621 243.897 223.98 234.018 228.254 228.702C230.312 226.542 231.811 221.391 226.871 220.304C220.697 218.945 204.777 210.348 197.84 205.828C193.624 203.081 177.155 188.263 189.958 165.986L194.024 169.25Z" fill="black"/>
<path d="M160.379 285.332C157.296 285.455 151.723 288.414 154.09 299.273C156.458 310.133 173.08 308.934 181.095 306.978C178.259 323.854 176.952 361.788 194.412 378.518C211.872 395.247 230.543 405.546 237.695 408.603H205.508C195.521 404.69 175.25 388.497 174.066 355.038C172.96 323.773 175.213 313.351 176.721 311.62C170.263 316.451 154.915 312.437 152.179 307.638C148.582 301.328 152.981 291.814 154.09 285.332H160.379Z" fill="black"/>
<path d="M108.126 258.87C117.659 259.363 133.258 257.94 140.654 256.024L139.87 257.591C133.98 259.164 124.734 262.346 117.667 262.51C110.599 262.675 96.2099 259.349 92.3063 257.023C93.6075 257.433 98.5931 258.378 108.126 258.87Z" fill="black"/>
<path d="M61.3852 267.785C63.4758 268.026 79.1801 294.988 88.2492 307.059H94.0462L65.5285 264.112C58.4187 262.264 46.2754 264.327 34.8504 244.473C28.263 233.026 18.939 221.891 13.8671 218.042C18.0439 214.677 27.2805 203.141 27.2805 183.084C27.2805 157.328 27.5461 152.442 19.8434 114.66C12.1407 76.8776 15.9699 47.9314 36.4441 67.7215C54.0106 84.7011 78.8014 123.431 87.7415 128.535C101.525 136.405 142.517 156.437 153.341 159.419C161.199 161.585 182.107 168.103 191.716 170.666L192.175 168.964C183.884 166.921 164.657 161.768 154.076 157.505C140.849 152.176 103.673 133.543 89.8627 126.597C77.0726 120.164 65.9693 86.523 37.3826 59.4519C8.79592 32.3807 5.38262 94.1968 12.8493 114.66C20.3159 135.123 20.5293 158.571 20.9559 183.084C21.2973 202.695 10.7159 214.56 5.38262 218.042C8.3693 219.818 17.2013 227.847 28.636 245.753C42.9293 268.134 58.7719 267.484 61.3852 267.785Z" fill="black"/>
<path d="M97.0488 2.4001C109.448 -0.208215 142.079 -1.1211 173.404 16.0937C204.73 33.3085 215.171 45.437 216.477 49.3495L183.846 137.38L123.153 119.122L67.0287 95.647L97.0488 2.4001ZM160.556 125.032L166.252 127.009L172.474 129.137L203.921 47.9451C203.921 47.9451 200.823 45.3108 197.638 42.8587C194.901 40.7516 192.173 38.898 191.516 38.4324L160.556 125.032ZM153.434 120.17H157.292L188.697 36.5472C188.697 36.5472 188.05 36.0834 186.596 35.1791C185.711 34.629 184.593 33.9043 184.593 33.9043L153.434 120.17Z" fill="black"/>
<path fill-rule="evenodd" clip-rule="evenodd" d="M155.014 221.683C167.475 221.683 176.528 210.167 176.528 195.877C176.528 181.586 168.821 170.903 155.908 169.446C142.577 168.509 132.892 181.043 132.892 195.333C132.892 209.624 142.554 221.683 155.014 221.683ZM155.014 224.773C170.057 224.773 182.251 211.592 182.251 195.333C182.251 179.075 170.057 165.894 155.014 165.894C139.972 165.894 127.778 179.075 127.778 195.333C127.778 211.592 139.972 224.773 155.014 224.773Z" fill="black"/>
<path d="M62.4508 292.293V305.598L77.0605 319.809C76.9743 320.885 77.0405 324.055 77.7069 327.301C78.7412 332.34 82.3613 336.732 82.3613 336.732C81.1546 337.636 77.7845 341.486 73.9575 349.65C70.1305 357.815 69.8633 374.324 70.2081 381.559L83.4036 408.601L108.219 370.19C107.53 367.305 105.711 359.675 103.953 352.234L97.4882 336.732C98.8242 334.837 100.72 331.564 102.272 328.076C103.311 325.74 104.728 321.23 104.728 318.259L148.816 304.048L155.449 276.062C140.581 285.708 118.638 305.598 94.3317 305.598C72.9847 305.598 67.2344 301.206 62.4508 292.293Z" fill="black"/>
<path fill-rule="evenodd" clip-rule="evenodd" d="M216.043 213.934C218.79 210.394 220.414 205.398 220.793 199.41C221.171 193.423 220.727 187.263 218.447 183.405C216.157 179.53 213.341 177.741 210.237 177.545C207.133 177.35 203.496 179.028 200.736 182.585C197.989 186.125 196.247 191.833 195.869 197.82C195.49 203.808 196.559 208.954 198.839 212.812C201.129 216.687 204.177 218.736 207.281 218.932C210.385 219.128 213.283 217.491 216.043 213.934ZM207.086 222.023C215.953 222.582 223.81 212.459 224.635 199.41C225.46 186.362 218.94 175.331 210.073 174.771C201.206 174.211 193.349 184.335 192.524 197.383C191.699 210.432 198.219 221.463 207.086 222.023Z" fill="black"/>
<path d="M62.9682 348.016C63.713 364.572 76.5258 394.287 83.404 408.6L75.96 408.611C69.7272 393.084 62.045 380.085 57.9025 349.378C56.055 335.684 57.1985 310.559 58.8256 298.258C49.5235 311.572 37.5872 322.604 30.6247 328.654C26.6551 332.103 14.9117 334.027 14.9117 352.518C14.9117 367.311 15.5544 393.827 16.8363 408.604H9.93655C9.93655 393.642 10.6416 365.123 10.7228 350.522C10.819 333.205 20.351 330.415 26.8982 326.182C32.136 322.796 53.1273 298.505 62.9682 286.782C62.6579 300.295 62.2234 331.46 62.9682 348.016Z" fill="black"/>
<path d="M64.5508 96.0105C87.6843 91.7291 116.92 91.6253 144.927 107.599C185.451 130.712 207.804 164.703 206.939 178.805L193.197 168.768L192.757 170.381L153.703 158.491L110.073 138.676L87.4958 127.396L77.7326 115.507L75.5269 112.285C74.317 110.941 74.0925 109.556 73.4999 109.411L64.5508 96.0105Z" fill="black"/>
<path d="M75.4533 185.628L129.253 200.303V195.977C116.525 192.528 90.1092 185.474 86.2752 184.856C82.4411 184.238 77.4631 185.113 75.4533 185.628Z" fill="black"/>
<path d="M130.013 327.214L83.404 408.6H96.7632C111.778 377.408 139.935 318.462 141.351 316.104C143.482 312.555 149.782 310.227 153.737 305.398L159.93 283.102L153.737 275.146L148.23 304.283C145.383 306.635 139.208 311.817 137.287 313.735C135.367 315.654 131.637 323.52 130.013 327.214Z" fill="black"/>
<path d="M120.186 176.624C116.63 179.437 109.198 183.347 105.926 184.951C110.062 183.594 117.443 181.19 122.593 179.4C126.853 177.919 134.816 175.329 143.15 178.105C149.816 180.325 147.409 184.951 149.076 187.726C147.409 188.837 142.173 190.317 138.705 190.317C131.668 190.317 125.742 185.629 120.186 182.545C119.692 182.977 120.927 185.136 129.816 190.317C138.705 195.498 149.323 191.489 153.52 188.837C153.397 187.541 153.668 184.766 149.076 178.105C143.335 169.778 124.631 173.108 120.186 176.624Z" fill="black"/>
<path d="M35.9912 135.142C41.1295 154.909 61.0413 157.712 70.3549 156.642C59.633 153.031 47.8272 153.134 41.2276 134.641C37.0363 122.897 27.5842 80.6541 29.6559 79.7437C35.9912 76.9598 62.8276 125.46 73.0666 122.429C69.3935 119.556 56.2928 104.804 49.46 93.5372C41.4172 80.2759 28.2836 70.6431 25.7143 71.6058C23.1451 72.5685 29.5682 110.434 35.9912 135.142Z" fill="black"/>
<path d="M216.578 228.516C217.278 231 221.493 234.309 222.794 234.65H224.499L231.591 224.943L229.065 218.731L218.962 217.858C218.102 218.731 215.879 226.031 216.578 228.516Z" fill="black"/>
<path fill-rule="evenodd" clip-rule="evenodd" d="M194.587 200.705H180.253V199.659H194.587V200.705Z" fill="black"/>
</svg>
