<svg width="419" height="419" viewBox="0 0 419 419" fill="none" xmlns="http://www.w3.org/2000/svg">
<path d="M330.047 412.789H76.0469V346.268L79.9563 336.279L94.4975 325.836L124.035 293.484L125.53 283.5L123.098 265.684L107.43 260.285L76.0469 221.955V215.747L85.5533 193.7V139.973L76.0469 86.8405L78.4235 65.7654L85.5533 56.8603L100.11 63.094L128.035 98.12L197.926 135.071L242.182 25.2612L272.627 47.0554L235.282 154.822L255.481 165.501L250.43 176.78V188.95L257.857 201.417L286.674 217.743L292.021 230.21L279.247 243.567L267.661 245.645V250.394L261.422 255.44L253.104 257.815L212.702 255.44L222.505 277.406L253.104 302.34L297.963 315.697L314.302 328.164L330.047 412.789Z" fill="white"/>
<path d="M63.0547 408.603H356.055V418.953H63.0547V408.603Z" fill="black"/>
<path d="M123.376 277.549C124.054 282.748 123.658 288.192 123.376 290.264H124.507C124.789 289.934 125.553 288.003 126.345 282.917C127.137 277.831 125.449 270.532 124.507 267.519H121.82C122.056 268.696 122.697 272.35 123.376 277.549Z" fill="black"/>
<path d="M270.989 305.198C234.067 296.471 218.2 268.464 214.891 255.902C214.891 255.902 208.53 255.947 208.567 256.604C209.357 270.648 232.308 304.478 270.989 310.804C302.384 315.938 312.991 326.551 314.243 345.956C315.061 358.636 322.473 399.61 324.808 408.603H343.641C331.517 393.116 326.073 369.163 322.103 347.345C317.141 320.073 317.141 316.107 270.989 305.198Z" fill="black"/>
<path d="M273.098 197.44C279.076 198.604 281.994 204.939 282.899 207.815C283.546 207.233 285.178 205.31 284.161 203.064C282.317 198.992 281.055 197.731 275.136 195.113C271.77 193.625 257.992 191.591 251.652 190.168L253.011 193.562C257.087 194.467 267.12 196.277 273.098 197.44Z" fill="black"/>
<path d="M256.58 169.25C252.204 176.063 246.907 192.586 262.515 202.794C278.124 213.003 289.279 217.445 292.905 218.39C296.019 219.139 300.733 222.384 294.679 229.379C287.111 238.122 280.39 247.787 268.802 247.787C270.014 248.613 270.111 250.271 266.181 252.654C259.559 256.672 256.958 259.352 244.305 258.761C231.652 258.17 213.813 255.506 202.408 259.608C191.002 263.711 184.075 264.571 179.361 270.345C175.59 274.964 163.969 295.698 159.001 305.524H154.477C159.038 294.574 170.325 275.699 175.757 267.845C179.553 262.357 191.521 258.595 198.865 256.122C214.072 251.001 231.462 256.122 244.305 256.122C251.356 256.122 253.366 258.212 263.16 252.24C265.599 250.754 261.944 248.98 258.515 248.096L203.216 235.499C222.626 237.819 257.265 243.897 267.252 243.897C279.177 243.897 286.536 234.018 290.809 228.702C292.868 226.542 294.367 221.391 289.427 220.304C283.252 218.945 267.333 210.348 260.395 205.828C256.18 203.081 239.711 188.263 252.514 165.986L256.58 169.25Z" fill="black"/>
<path d="M222.934 285.332C219.852 285.455 214.278 288.414 216.646 299.273C219.013 310.133 235.635 308.934 243.65 306.978C240.814 323.854 239.507 361.788 256.967 378.518C274.427 395.247 293.098 405.546 300.25 408.603H268.064C258.076 404.69 237.805 388.497 236.621 355.038C235.515 323.773 237.769 313.351 239.276 311.62C232.818 316.451 217.471 312.437 214.735 307.638C211.137 301.328 215.536 291.814 216.646 285.332H222.934Z" fill="black"/>
<path d="M170.681 258.87C180.214 259.363 195.813 257.94 203.209 256.024L202.425 257.591C196.535 259.164 187.289 262.346 180.222 262.51C173.154 262.675 158.765 259.349 154.861 257.023C156.163 257.433 161.148 258.378 170.681 258.87Z" fill="black"/>
<path d="M123.94 267.785C126.031 268.026 141.735 294.988 150.804 307.059H156.601L128.083 264.112C120.974 262.264 108.83 264.327 97.4053 244.473C90.8179 233.026 81.4938 221.891 76.422 218.042C80.5988 214.677 89.8354 203.141 89.8354 183.084C89.8354 157.328 90.101 152.442 82.3983 114.66C74.6956 76.8776 78.5248 47.9314 98.999 67.7215C116.565 84.7011 141.356 123.431 150.296 128.535C164.08 136.405 205.072 156.437 215.896 159.419C223.754 161.585 244.662 168.103 254.271 170.666L254.73 168.964C246.439 166.921 227.212 161.768 216.631 157.505C203.404 152.176 166.228 133.543 152.418 126.597C139.627 120.164 128.524 86.523 99.9375 59.4519C71.3508 32.3807 67.9375 94.1968 75.4041 114.66C82.8708 135.123 83.0841 158.571 83.5108 183.084C83.8521 202.695 73.2708 214.56 67.9375 218.042C70.9242 219.818 79.7562 227.847 91.1909 245.753C105.484 268.134 121.327 267.484 123.94 267.785Z" fill="black"/>
<path d="M159.604 2.4001C172.004 -0.208215 204.634 -1.1211 235.96 16.0937C267.285 33.3085 277.727 45.437 279.032 49.3495L246.401 137.38L185.709 119.122L129.584 95.647L159.604 2.4001ZM223.111 125.032L228.807 127.009L235.029 129.137L266.477 47.9451C266.477 47.9451 263.379 45.3108 260.193 42.8587C257.456 40.7516 254.729 38.898 254.072 38.4324L223.111 125.032ZM215.989 120.17H219.847L251.252 36.5472C251.252 36.5472 250.605 36.0834 249.151 35.1791C248.267 34.629 247.148 33.9043 247.148 33.9043L215.989 120.17Z" fill="black"/>
<path fill-rule="evenodd" clip-rule="evenodd" d="M217.568 221.683C230.028 221.683 239.082 210.167 239.082 195.877C239.082 181.586 231.375 170.903 218.461 169.446C205.131 168.509 195.446 181.043 195.446 195.333C195.446 209.624 205.108 221.683 217.568 221.683ZM217.568 224.773C232.61 224.773 244.804 211.592 244.804 195.333C244.804 179.075 232.61 165.894 217.568 165.894C202.526 165.894 190.332 179.075 190.332 195.333C190.332 211.592 202.526 224.773 217.568 224.773Z" fill="black"/>
<path d="M125.006 292.293V305.598L139.616 319.809C139.529 320.885 139.596 324.055 140.262 327.301C141.296 332.34 144.916 336.732 144.916 336.732C143.71 337.636 140.34 341.486 136.513 349.65C132.686 357.815 132.418 374.324 132.763 381.559L145.959 408.601L170.774 370.19C170.085 367.305 168.266 359.675 166.508 352.234L160.043 336.732C161.379 334.837 163.276 331.564 164.827 328.076C165.866 325.74 167.284 321.23 167.284 318.259L211.371 304.048L218.004 276.062C203.136 285.708 181.193 305.598 156.887 305.598C135.54 305.598 129.79 301.206 125.006 292.293Z" fill="black"/>
<path fill-rule="evenodd" clip-rule="evenodd" d="M278.597 213.934C281.344 210.394 282.968 205.398 283.347 199.41C283.726 193.423 283.281 187.263 281.001 183.405C278.711 179.53 275.895 177.741 272.791 177.545C269.687 177.35 266.05 179.028 263.29 182.585C260.543 186.125 258.801 191.833 258.423 197.82C258.044 203.808 259.113 208.954 261.393 212.812C263.683 216.687 266.731 218.736 269.835 218.932C272.939 219.128 275.837 217.491 278.597 213.934ZM269.64 222.023C278.507 222.582 286.364 212.459 287.189 199.41C288.014 186.362 281.494 175.331 272.627 174.771C263.76 174.211 255.903 184.335 255.079 197.383C254.254 210.432 260.773 221.463 269.64 222.023Z" fill="black"/>
<path d="M125.524 348.016C126.269 364.572 139.081 394.287 145.96 408.6L138.516 408.611C132.283 393.084 124.601 380.085 120.458 349.378C118.611 335.684 119.754 310.559 121.381 298.258C112.079 311.572 100.143 322.604 93.1803 328.654C89.2107 332.103 77.4673 334.027 77.4673 352.518C77.4673 367.311 78.11 393.827 79.3919 408.604H72.4922C72.4922 393.642 73.1972 365.123 73.2784 350.522C73.3747 333.205 82.9066 330.415 89.4538 326.182C94.6916 322.796 115.683 298.505 125.524 286.782C125.213 300.295 124.779 331.46 125.524 348.016Z" fill="black"/>
<path d="M127.105 96.0105C150.239 91.7291 179.475 91.6253 207.481 107.599C248.006 130.712 270.359 164.703 269.494 178.805L255.751 168.768L255.311 170.381L216.258 158.491L172.628 138.676L150.051 127.396L140.287 115.507L138.082 112.285C136.872 110.941 136.647 109.556 136.055 109.411L127.105 96.0105Z" fill="black"/>
<path d="M138.008 185.628L191.808 200.303V195.977C179.079 192.528 152.664 185.474 148.83 184.856C144.996 184.238 140.018 185.113 138.008 185.628Z" fill="black"/>
<path d="M192.568 327.214L145.959 408.6H159.318C174.333 377.408 202.49 318.462 203.906 316.104C206.037 312.555 212.337 310.227 216.292 305.398L222.485 283.102L216.292 275.146L210.785 304.283C207.938 306.635 201.763 311.817 199.842 313.735C197.922 315.654 194.192 323.52 192.568 327.214Z" fill="black"/>
<path d="M182.74 176.624C179.184 179.437 171.752 183.347 168.48 184.951C172.616 183.594 179.998 181.19 185.148 179.4C189.407 177.919 197.37 175.329 205.704 178.105C212.37 180.325 209.963 184.951 211.63 187.726C209.963 188.837 204.727 190.317 201.259 190.317C194.222 190.317 188.296 185.629 182.74 182.545C182.246 182.977 183.481 185.136 192.37 190.317C201.259 195.498 211.877 191.489 216.074 188.837C215.951 187.541 216.222 184.766 211.63 178.105C205.889 169.778 187.185 173.108 182.74 176.624Z" fill="black"/>
<path d="M98.5463 135.142C103.685 154.909 123.597 157.712 132.91 156.642C122.188 153.031 110.382 153.134 103.783 134.641C99.5915 122.897 90.1394 80.6541 92.2111 79.7437C98.5463 76.9598 125.383 125.46 135.622 122.429C131.949 119.556 118.848 104.804 112.015 93.5372C103.972 80.2759 90.8387 70.6431 88.2695 71.6058C85.7003 72.5685 92.1234 110.434 98.5463 135.142Z" fill="black"/>
<path d="M279.132 228.516C279.832 231 284.047 234.309 285.348 234.65H287.053L294.144 224.943L291.619 218.731L281.515 217.858C280.656 218.731 278.433 226.031 279.132 228.516Z" fill="black"/>
<path fill-rule="evenodd" clip-rule="evenodd" d="M257.141 200.705H242.807V199.659H257.141V200.705Z" fill="black"/>
</svg>
