<svg width="792" height="1170" viewBox="0 0 792 1170" fill="none" xmlns="http://www.w3.org/2000/svg">
<path d="M791.321 1169.97H43.9513L21.7186 1123.46V1024.91L32.1526 971.582L58.8182 950.713L120.266 886.948L163.163 844.051V769.851L153.888 758.257L112.15 740.867L84.3252 709.564L50.7034 662.03L14.7627 624.93L32.1526 607.539L58.8182 528.702L43.9513 379.143L21.7186 263.205L32.1526 177.412L58.8182 162.34L102.874 187.846L172.437 281.755L534.161 474.211L522.567 528.702L534.161 557.686L579.377 599.423L640.823 624.93L654.736 640.001L608.361 701.448H579.377L570.102 716.52L555.03 730.432H534.161H417.064L424.021 769.851L522.567 860.282L654.736 903.179L713.864 950.713L735.892 1085.2L791.321 1169.97Z" fill="white"/>
<path d="M170.518 1169.89H203.569L170.518 1050.67L159.894 946.797V851.184L123.302 891.317V1038.87C123.302 1079.47 154.779 1143.14 170.518 1169.89Z" fill="#D9D9D9"/>
<path d="M260.704 434.062C239.933 446.65 202.744 448.748 186.746 448.224L133.245 434.062L104.134 404.951L80.5305 333.354L70.3022 235.793V216.123L112.002 252.315C126.426 274.083 162.671 323.44 192.254 346.729C221.837 370.018 275.391 391.051 298.469 398.657C294.536 405.213 281.475 421.473 260.704 434.062Z" fill="#D9D9D9"/>
<path d="M148.991 678.106C84.3023 621.503 66.7823 518.405 66.1084 473.932L49.9358 575.008L13.5483 623.525L66.1084 678.106L110.582 742.795L169.206 765.032L233.895 862.066L258.154 874.195L308.692 781.204L345.08 742.795C306.671 744.817 213.68 734.709 148.991 678.106Z" fill="#D9D9D9"/>
<path d="M160.579 794.045C162.524 808.959 161.39 824.574 160.579 830.517H163.821C164.631 829.572 166.82 824.033 169.089 809.444C171.358 794.855 166.522 773.918 163.821 765.272H156.121C156.797 768.65 158.634 779.132 160.579 794.045Z" fill="black"/>
<path fill-rule="evenodd" clip-rule="evenodd" d="M159.826 831.175C159.636 830.957 159.549 830.668 159.588 830.382C160.39 824.5 161.518 808.977 159.587 794.175C157.644 779.277 155.81 768.818 155.141 765.469C155.082 765.175 155.158 764.87 155.348 764.638C155.538 764.407 155.822 764.272 156.121 764.272H163.821C164.258 764.272 164.645 764.557 164.775 764.974C166.14 769.342 168.036 776.786 169.307 784.976C170.576 793.152 171.235 802.153 170.077 809.598C168.938 816.919 167.816 821.992 166.871 825.367C166.398 827.054 165.966 828.328 165.594 829.251C165.237 830.139 164.898 830.797 164.58 831.168C164.39 831.39 164.113 831.517 163.821 831.517H160.579C160.29 831.517 160.016 831.393 159.826 831.175ZM160.579 830.517H163.821C164.631 829.572 166.82 824.033 169.089 809.444C171.358 794.855 166.522 773.918 163.821 765.272H156.121C156.178 765.556 156.243 765.89 156.315 766.272C157.106 770.442 158.797 780.385 160.579 794.045C162.424 808.186 161.499 822.958 160.707 829.517C160.664 829.876 160.621 830.21 160.579 830.517Z" fill="black"/>
<path d="M583.681 873.36C477.858 848.326 432.379 767.987 422.896 731.953C422.896 731.953 404.662 732.083 404.768 733.968C407.034 774.252 472.815 871.295 583.681 889.441C673.665 904.168 704.066 934.611 707.655 990.276C710 1026.65 731.159 1141.38 737.852 1167.18H789.878C755.129 1122.75 741.564 1056.84 730.185 994.261C715.961 916.031 715.961 904.652 583.681 873.36Z" fill="black"/>
<path fill-rule="evenodd" clip-rule="evenodd" d="M422.889 730.953C423.346 730.95 423.747 731.257 423.863 731.699C433.272 767.451 478.518 847.455 583.912 872.387C616.985 880.21 641.833 886.799 660.713 893.508C679.59 900.217 692.577 907.072 701.874 915.466C719.858 931.704 723.817 953.539 730.452 990.133C730.687 991.431 730.926 992.747 731.169 994.082C742.557 1056.72 756.095 1122.36 790.666 1166.56L791.93 1168.18H737.078L736.884 1167.43C733.526 1154.48 726.557 1119.31 720.138 1082.86C713.721 1046.42 707.834 1008.59 706.657 990.34C704.875 962.695 696.453 941.456 677.419 925.269C658.33 909.036 628.452 897.781 583.52 890.427C527.833 881.313 483.486 852.388 452.782 820.702C437.429 804.859 425.474 788.312 417.211 773.183C408.959 758.074 404.348 744.305 403.769 734.024C403.737 733.452 404.073 733.064 404.321 732.861C404.571 732.656 404.878 732.512 405.164 732.404C405.747 732.184 406.53 732.012 407.394 731.871C409.142 731.585 411.453 731.39 413.733 731.255C416.022 731.12 418.31 731.045 420.024 731.003C420.882 730.982 421.597 730.97 422.098 730.962C422.349 730.959 422.546 730.957 422.681 730.955L422.835 730.954L422.889 730.953C422.889 730.953 422.889 730.953 422.896 731.953C422.896 731.953 404.662 732.083 404.768 733.968C407.034 774.252 472.815 871.295 583.681 889.441C673.665 904.168 704.066 934.611 707.655 990.276C710 1026.65 731.159 1141.38 737.852 1167.18H789.878C789.618 1166.84 789.36 1166.51 789.102 1166.18C754.927 1121.76 741.479 1056.38 730.185 994.261C729.957 993.006 729.732 991.768 729.511 990.547C715.927 915.66 713.839 904.15 583.681 873.36C477.858 848.326 432.379 767.987 422.896 731.953L422.889 730.953Z" fill="black"/>
<path d="M589.728 564.258C606.861 567.596 615.225 585.767 617.821 594.019C619.675 592.35 624.35 586.833 621.436 580.39C616.151 568.709 612.535 565.093 595.569 557.583C585.922 553.313 546.432 547.478 528.261 543.398L532.155 553.133C543.837 555.729 572.595 560.921 589.728 564.258Z" fill="black"/>
<path d="M264.428 4.81227L178.385 272.294L339.248 339.632L513.205 392.006L606.73 139.488C602.989 128.265 573.061 93.474 483.277 44.0928C393.493 -5.28852 299.968 -2.66977 264.428 4.81227Z" fill="black"/>
<path d="M542.38 483.382C529.839 502.926 514.655 550.322 559.392 579.605C604.13 608.888 636.102 621.632 646.496 624.343C655.421 626.49 668.932 635.799 651.579 655.863C629.888 680.943 610.625 708.669 577.41 708.669C580.886 711.038 581.162 715.792 569.899 722.63C550.919 734.154 543.463 741.841 507.198 740.147C470.934 738.452 419.802 730.81 387.113 742.578C354.423 754.347 334.569 756.815 321.057 773.377C310.248 786.627 276.939 846.102 262.701 874.287H249.733C262.808 842.878 295.158 788.734 310.727 766.206C321.607 750.462 355.91 739.671 376.959 732.577C420.545 717.887 470.387 732.577 507.198 732.577C527.408 732.577 533.168 738.572 561.24 721.443C568.23 717.178 557.753 712.091 547.927 709.555L389.431 673.418C445.063 680.075 544.344 697.51 572.969 697.51C607.147 697.51 628.24 669.171 640.488 653.923C646.387 647.726 650.684 632.951 636.526 629.832C618.829 625.934 573.201 601.272 553.316 588.306C541.233 580.428 495.049 540.436 528.749 480.688L542.38 483.382Z" fill="black"/>
<path fill-rule="evenodd" clip-rule="evenodd" d="M577.41 708.67C577.55 708.765 577.684 708.863 577.813 708.966C578.081 709.181 578.325 709.412 578.539 709.659C580.777 712.248 579.766 716.64 569.899 722.631C567.814 723.897 565.868 725.116 564.007 726.282C548.933 735.73 539.479 741.655 507.198 740.147C499.531 739.789 491.199 739.165 482.517 738.514C450.137 736.089 412.891 733.298 387.113 742.578C379.177 745.435 371.997 747.744 365.481 749.84C345.157 756.376 331.289 760.836 321.057 773.377C310.248 786.627 276.939 846.102 262.701 874.287H249.733C249.871 873.957 250.011 873.623 250.153 873.287C263.487 841.741 295.322 788.497 310.727 766.206C321.009 751.328 352.209 740.873 373.373 733.781C374.605 733.368 375.802 732.967 376.959 732.577C406.795 722.522 439.561 726.232 469.073 729.575C482.675 731.115 495.585 732.577 507.198 732.577C511.701 732.577 515.486 732.875 518.96 733.148C531.082 734.101 539.422 734.756 561.24 721.443C568.23 717.178 557.753 712.092 547.927 709.556L400.426 675.926L400.424 675.925L389.431 673.419C392.61 673.799 395.932 674.215 399.375 674.66C418.962 677.195 442.473 680.698 465.979 684.201C510.641 690.857 555.286 697.51 572.969 697.51C605.672 697.51 626.395 671.565 638.853 655.967C639.415 655.264 639.96 654.581 640.488 653.923C646.388 647.726 650.684 632.951 636.526 629.832C618.829 625.934 573.201 601.272 553.316 588.306C541.233 580.428 495.049 540.436 528.749 480.688L542.38 483.382C542.19 483.678 541.999 483.98 541.809 484.288C529.394 504.357 515.332 550.766 559.392 579.605C604.13 608.888 636.102 621.632 646.496 624.343C655.421 626.49 668.932 635.799 651.579 655.863C649.173 658.645 646.797 661.46 644.428 664.266C625.777 686.357 607.593 707.897 578.962 708.649C578.613 708.658 578.262 708.664 577.911 708.667C577.744 708.669 577.578 708.67 577.41 708.67ZM579.76 709.624C579.942 709.907 580.098 710.21 580.221 710.531C580.659 711.676 580.644 712.964 580.114 714.335C579.084 716.999 576.087 720.044 570.418 723.485C568.365 724.732 566.439 725.939 564.589 727.099C557.964 731.252 552.322 734.789 545.369 737.287C536.429 740.498 525.354 741.996 507.152 741.146C499.469 740.787 491.121 740.162 482.44 739.511C480.857 739.393 479.262 739.273 477.659 739.154C467.256 738.384 456.462 737.639 445.784 737.314C424.402 736.663 403.608 737.703 387.451 743.519C379.498 746.382 372.304 748.696 365.79 750.791L365.207 750.978C358.532 753.125 352.592 755.046 347.254 757.113C336.596 761.24 328.434 765.917 321.832 774.009C316.491 780.556 305.506 798.655 294.033 818.728C282.581 838.766 270.703 860.665 263.594 874.738C263.424 875.075 263.079 875.287 262.701 875.287H249.733C249.399 875.287 249.087 875.12 248.901 874.842C248.716 874.564 248.682 874.212 248.81 873.903C261.922 842.404 294.315 788.196 309.904 765.637C315.518 757.513 327.055 750.787 339.625 745.233C350.856 740.271 363.094 736.17 373.056 732.832C374.288 732.42 375.484 732.019 376.64 731.63C398.629 724.218 422.151 724.232 444.701 726.072C453.025 726.751 461.24 727.681 469.199 728.583C472.019 728.902 474.807 729.218 477.556 729.517C488.083 730.665 498.054 731.577 507.198 731.577C511.742 731.577 515.566 731.878 519.039 732.151C519.464 732.184 519.883 732.217 520.298 732.249C524.115 732.543 527.536 732.751 531.185 732.437C538.445 731.813 546.75 729.113 560.719 720.589C562.335 719.603 562.572 718.806 562.5 718.278C562.407 717.6 561.757 716.698 560.309 715.665C557.49 713.654 552.566 711.787 547.69 710.527C547.686 710.526 547.681 710.525 547.677 710.524L389.208 674.394C388.69 674.275 388.355 673.772 388.445 673.248C388.536 672.724 389.021 672.362 389.55 672.426C410.831 674.972 438.497 679.095 466.138 683.214C474.648 684.482 483.155 685.75 491.473 686.971C526.864 692.167 558.749 696.51 572.969 696.51C605.176 696.51 625.616 670.93 638.114 655.29C638.66 654.606 639.192 653.94 639.709 653.297C639.726 653.275 639.745 653.254 639.764 653.234C642.568 650.288 644.989 645.28 645.029 640.715C645.048 638.456 644.486 636.359 643.159 634.655C641.835 632.956 639.674 631.549 636.311 630.809C627.316 628.827 611.372 621.624 595.284 613.359C579.158 605.075 562.749 595.651 552.769 589.144C546.624 585.137 531.907 573.043 522.962 554.381C513.987 535.656 510.856 510.375 527.878 480.196C528.09 479.82 528.519 479.623 528.943 479.707L542.573 482.401C542.898 482.465 543.17 482.686 543.3 482.99C543.429 483.295 543.4 483.644 543.221 483.922C537.029 493.574 530.181 510.119 530.407 527.829C530.631 545.475 537.871 564.323 559.94 578.769C604.614 608.01 636.479 620.694 646.739 623.373C651.331 624.48 657.294 627.463 659.802 632.969C662.363 638.594 661.123 646.357 652.336 656.517C649.949 659.277 647.586 662.076 645.225 664.873C636.908 674.725 628.623 684.539 619.469 692.429C608.227 702.119 595.577 709.001 579.76 709.624Z" fill="black"/>
<path d="M445.95 816.37C437.115 816.721 421.141 825.21 427.926 856.361C434.712 887.512 482.353 884.074 505.325 878.461C497.197 926.871 493.45 1035.69 543.495 1083.68C593.539 1131.66 647.047 1161.2 667.545 1169.97H575.302C546.675 1158.75 488.573 1112.3 485.18 1016.32C482.01 926.638 488.468 896.744 492.789 891.779C474.279 905.636 430.291 894.12 422.449 880.355C412.137 862.255 424.746 834.962 427.926 816.37H445.95Z" fill="black"/>
<path d="M296.179 740.454C323.502 741.867 368.211 737.785 389.41 732.289L387.163 736.783C370.282 741.297 343.782 750.425 323.525 750.896C303.269 751.367 262.025 741.828 250.837 735.154C254.567 736.332 268.856 739.041 296.179 740.454Z" fill="black"/>
<path fill-rule="evenodd" clip-rule="evenodd" d="M390.964 731.031C391.458 731.64 391.549 732.482 391.199 733.184L388.952 737.677C388.696 738.189 388.232 738.567 387.679 738.715C384.154 739.658 380.205 740.804 375.953 742.037C375.147 742.271 374.33 742.508 373.503 742.748C368.325 744.246 362.773 745.832 357.109 747.292C345.808 750.206 333.938 752.654 323.572 752.895C313.198 753.136 297.635 750.827 283.347 747.657C276.181 746.067 269.285 744.249 263.462 742.402C257.681 740.569 252.819 738.665 249.813 736.872C248.941 736.352 248.597 735.261 249.013 734.335C249.428 733.409 250.472 732.941 251.439 733.247C254.912 734.344 268.986 737.045 296.282 738.456C323.437 739.861 367.938 735.79 388.908 730.353C389.667 730.156 390.471 730.421 390.964 731.031ZM260.109 737.054C267.635 738.241 279.47 739.59 296.179 740.454C322.45 741.813 364.795 738.091 386.86 732.917C387.743 732.71 388.594 732.501 389.41 732.289L387.163 736.783C383.615 737.732 379.641 738.885 375.391 740.118C359.418 744.752 339.524 750.524 323.525 750.896C306.95 751.281 276.324 744.965 259.61 739C255.897 737.675 252.871 736.367 250.837 735.154C252.286 735.612 255.328 736.3 260.109 737.054Z" fill="black"/>
<path d="M162.2 766.083C168.192 766.774 213.203 844.116 239.197 878.742H255.812L174.075 755.547C153.697 750.246 118.893 756.162 86.1464 699.212C67.2657 666.376 40.5412 634.435 26.0045 623.392C37.9759 613.741 64.4496 580.65 64.4496 523.114C64.4496 449.233 65.2109 435.218 43.1335 326.838C21.0561 218.457 32.0313 135.424 90.7141 192.193C141.063 240.899 212.118 351.997 237.742 366.639C277.248 389.214 394.739 446.677 425.762 455.232C448.285 461.443 508.21 480.141 535.753 487.492L537.067 482.611C513.304 476.749 458.197 461.968 427.869 449.739C389.959 434.453 283.404 381.005 243.822 361.079C207.163 342.625 175.339 246.126 93.4041 168.471C11.4694 90.8165 1.68628 268.138 23.087 326.838C44.4878 385.537 45.0993 452.797 46.3222 523.114C47.3006 579.368 16.9726 613.405 1.68628 623.392C10.2466 628.488 35.5608 651.519 68.3347 702.881C109.302 767.084 154.71 765.218 162.2 766.083Z" fill="black"/>
<path fill-rule="evenodd" clip-rule="evenodd" d="M239.197 879.741C238.882 879.741 238.586 879.593 238.397 879.342C226.612 863.642 210.935 839.196 196.769 817.105C195.279 814.782 193.806 812.485 192.356 810.227C184.729 798.349 177.738 787.549 172.281 779.677C169.551 775.739 167.219 772.553 165.391 770.338C164.475 769.228 163.705 768.384 163.089 767.816C162.78 767.532 162.53 767.335 162.335 767.21C162.157 767.096 162.077 767.076 162.077 767.075C161.554 767.015 160.831 766.968 159.926 766.909C154.494 766.558 142.481 765.782 127.418 759.148C109.816 751.396 88.074 735.675 67.4917 703.419C51.1305 677.778 36.6409 659.224 25.186 646.454C13.7125 633.664 5.32424 626.721 1.1748 624.251C0.878283 624.075 0.693712 623.758 0.686499 623.413C0.679285 623.068 0.850449 622.744 1.13933 622.555C16.166 612.737 46.2942 579.009 45.3224 523.131C45.2911 521.331 45.2602 519.533 45.2293 517.737C44.0533 449.338 42.9334 384.193 22.1475 327.18C16.7464 312.365 13.338 290.159 12.5241 266.443C11.7099 242.715 13.4896 217.379 18.5221 196.289C21.0383 185.744 24.3754 176.227 28.63 168.494C32.8815 160.766 38.0843 154.756 44.3615 151.323C57.0612 144.377 73.5164 148.244 94.092 167.745C135.157 206.665 163.653 250.297 186.437 286.441C188.027 288.963 189.588 291.448 191.124 293.891C200.603 308.976 209.099 322.495 217.182 333.527C226.588 346.365 235.333 355.686 244.271 360.185C283.878 380.123 390.382 433.545 428.243 448.811C458.498 461.011 513.542 475.777 537.306 481.64C537.568 481.704 537.792 481.871 537.928 482.102C538.065 482.334 538.102 482.611 538.033 482.871L536.718 487.752C536.575 488.284 536.028 488.6 535.495 488.458C521.706 484.777 499.822 478.26 478.588 471.892C475.891 471.083 473.205 470.277 470.547 469.479C452.262 463.99 435.316 458.903 425.497 456.195C409.88 451.889 372.663 435.338 334.502 417.094C296.306 398.834 257.031 378.812 237.246 367.507C233.921 365.607 229.931 362.19 225.422 357.64C220.9 353.078 215.806 347.322 210.271 340.694C199.203 327.439 186.332 310.639 172.705 292.796C172.079 291.977 171.452 291.155 170.823 290.332C144.037 255.256 114.55 216.642 90.0188 192.911C82.7264 185.857 76.2186 181.017 70.4668 178.127C64.716 175.238 59.7783 174.325 55.5832 175.027C47.2639 176.418 41.242 184.321 37.6044 197.844C30.3496 224.813 33.0789 272.468 44.1134 326.638C55.1525 380.829 60.491 411.473 63.0659 437.815C65.4702 462.414 65.4628 483.249 65.4513 515.958C65.4505 518.282 65.4496 520.665 65.4496 523.114C65.4496 579.475 40.1817 612.604 27.6005 623.366C34.8907 629.15 44.8301 639.606 55.225 652.502C66.1115 666.007 77.5435 682.244 87.0133 698.713C103.294 727.027 120.023 739.617 135.129 745.822C142.699 748.932 149.899 750.454 156.505 751.53C158.474 751.85 160.404 752.132 162.279 752.406C166.647 753.045 170.722 753.641 174.327 754.579C174.565 754.641 174.773 754.789 174.909 754.994L256.645 878.188C256.849 878.495 256.868 878.889 256.693 879.214C256.519 879.539 256.181 879.741 255.812 879.741H239.197ZM26.8168 624.021C26.542 623.804 26.2712 623.595 26.0045 623.392C26.2616 623.185 26.5254 622.967 26.7955 622.738C39.1009 612.308 64.4496 579.414 64.4496 523.114C64.4496 520.67 64.4505 518.293 64.4513 515.975C64.475 448.203 64.4808 431.633 43.1335 326.837C21.0561 218.457 32.0313 135.424 90.7141 192.192C115.301 215.977 144.825 254.639 171.585 289.682C199.625 326.401 224.631 359.146 237.742 366.638C277.248 389.213 394.739 446.676 425.762 455.231C435.593 457.942 452.55 463.032 470.83 468.52C494.429 475.604 520.232 483.349 535.753 487.492L537.067 482.611C536.749 482.532 536.425 482.452 536.096 482.37C511.833 476.354 457.791 461.804 427.869 449.739C389.959 434.453 283.404 381.004 243.822 361.078C226.77 352.494 210.764 327.024 190.274 294.419C166.715 256.928 137.227 210.004 93.4041 168.471C11.4694 90.8161 1.68628 268.138 23.087 326.837C43.9314 384.011 45.0535 449.305 46.2277 517.636C46.2591 519.46 46.2904 521.286 46.3222 523.114C47.2814 578.266 18.1477 612.064 2.60074 622.778C2.29039 622.992 1.98546 623.197 1.68628 623.392C1.97757 623.565 2.28826 623.76 2.61799 623.975C11.978 630.088 36.676 653.267 68.3347 702.881C106.327 762.421 148.138 765.14 159.984 765.911C160.912 765.971 161.656 766.019 162.2 766.082C165.481 766.461 180.459 789.818 197.608 816.561C211.78 838.661 227.435 863.074 239.197 878.741H255.812L174.075 755.547C170.525 754.623 166.537 754.04 162.198 753.406C141.632 750.399 113.187 746.239 86.1464 699.212C67.6121 666.978 41.5192 635.607 26.8168 624.021Z" fill="black"/>
<path d="M570.824 135.248L480.6 368.354L463.096 383.231L446.44 356.581L535.345 106.787C537.381 107.757 546.387 112.73 553.663 118.722C562.307 125.841 567.811 131.302 570.824 135.248Z" fill="#565656"/>
<path d="M527.318 101.377L437.091 342.639L426.031 342.639L516.48 93.0059C516.48 93.0059 519.532 94.2184 521.502 95.8256C524.851 98.5573 527.318 101.377 527.318 101.377Z" fill="#565656"/>
<path d="M515.286 463.984C502.151 454.813 452.607 423.924 359.507 373.735C306.111 344.95 250.26 324.8 196.928 311.782L171.278 273.342C237.583 261.061 321.379 260.763 401.649 306.583C517.8 372.884 581.868 470.39 579.389 510.841L515.286 463.984Z" fill="black"/>
<path fill-rule="evenodd" clip-rule="evenodd" d="M170.441 272.988L171.187 272.85C237.56 260.556 321.488 260.249 401.897 306.148C460.028 339.33 505.131 380.324 535.396 418.093C550.528 436.977 561.956 455.063 569.449 470.971C576.936 486.866 580.515 500.636 579.888 510.872L579.832 511.785L515 464.394C514.998 464.393 514.996 464.392 514.995 464.391C501.877 455.232 452.354 424.356 359.269 374.175C305.915 345.412 250.105 325.277 196.809 312.268L196.62 312.222L170.441 272.988ZM172.115 273.696L197.235 311.343C250.547 324.371 306.37 344.521 359.744 373.295C452.848 423.486 502.413 454.386 515.572 463.574L515.581 463.581L578.935 509.89C579.286 499.993 575.776 486.752 568.544 471.397C561.092 455.574 549.709 437.554 534.615 418.718C504.428 381.046 459.422 340.136 401.402 307.017C321.57 261.447 238.233 261.563 172.115 273.696Z" fill="black"/>
<path fill-rule="evenodd" clip-rule="evenodd" d="M430.569 633.785C466.282 633.785 492.231 600.751 492.231 559.758C492.231 518.766 470.142 488.119 433.129 483.941C394.921 481.254 367.161 517.208 367.161 558.2C367.161 599.192 394.855 633.785 430.569 633.785ZM430.569 642.648C473.682 642.648 508.632 604.839 508.632 558.2C508.632 511.561 473.682 473.752 430.569 473.752C387.455 473.752 352.505 511.561 352.505 558.2C352.505 604.839 387.455 642.648 430.569 642.648Z" fill="black"/>
<path d="M165.252 836.339V874.508L207.126 915.27C206.879 918.358 207.069 927.452 208.979 936.763C211.944 951.215 222.32 963.815 222.32 963.815C218.861 966.409 209.201 977.452 198.233 1000.87C187.264 1024.29 186.498 1071.65 187.486 1092.4L225.447 1167.61L296.433 1059.79C294.457 1051.52 289.244 1029.63 284.204 1008.28L265.676 963.815C269.505 958.38 274.94 948.992 279.387 938.987C282.366 932.285 286.428 919.347 286.428 910.823L412.792 870.061L431.803 789.781C389.187 817.45 326.295 874.508 256.629 874.508C195.444 874.508 178.963 861.908 165.252 836.339Z" fill="black"/>
<path fill-rule="evenodd" clip-rule="evenodd" d="M605.486 611.577C613.361 601.421 618.016 587.089 619.101 569.914C620.186 552.738 618.912 535.069 612.377 524.003C605.814 512.887 597.742 507.756 588.845 507.194C579.948 506.632 569.525 511.448 561.615 521.649C553.74 531.805 548.748 548.177 547.663 565.352C546.578 582.528 549.643 597.291 556.178 608.357C562.742 619.473 571.477 625.352 580.374 625.914C589.271 626.476 597.575 621.778 605.486 611.577ZM579.814 634.779C605.229 636.384 627.748 607.343 630.112 569.914C632.477 532.485 613.791 500.841 588.377 499.235C562.962 497.63 540.443 526.671 538.078 564.1C535.714 601.529 554.4 633.173 579.814 634.779Z" fill="black"/>
<path d="M166.74 996.166C168.874 1043.66 203.988 1126.41 223.702 1167.47H203.305C185.44 1122.93 164.094 1088.16 152.22 1000.07C146.925 960.79 150.203 888.718 154.866 853.435C128.205 891.625 93.9931 923.272 74.0373 940.625C62.6597 950.519 29.0009 956.039 29.0009 1009.08C29.0009 1051.51 37.1329 1124.63 40.807 1167.02H22.8725C20.8212 1123.51 16.774 1043.09 16.9948 1003.35C17.2707 953.68 44.591 945.678 63.3565 933.535C78.3689 923.821 138.534 854.141 166.74 820.516C165.85 859.277 164.605 948.674 166.74 996.166Z" fill="black"/>
<path fill-rule="evenodd" clip-rule="evenodd" d="M225.292 1168.47H202.628L202.376 1167.84C198.966 1159.33 195.424 1151.18 191.843 1142.93C176.697 1108.06 160.849 1071.57 151.229 1000.21C146.11 962.227 148.979 893.809 153.374 857.277C127.004 894.102 94.0967 924.507 74.6935 941.38C72.297 943.463 68.9487 945.358 65.2584 947.446C64.4206 947.92 63.5652 948.404 62.6993 948.903C57.9629 951.629 52.7698 954.858 47.9374 959.401C38.3214 968.44 30.0009 982.807 30.0009 1009.08C30.0009 1041.79 34.8418 1092.78 38.742 1133.85C39.8942 1145.99 40.9643 1157.26 41.8033 1166.94L41.8975 1168.02H21.9185L21.8736 1167.07C21.6838 1163.05 21.4769 1158.7 21.2579 1154.11C19.1102 1109.03 15.7943 1039.44 15.9948 1003.35C16.1339 978.305 23.1011 963.627 32.5159 953.683C37.2044 948.731 42.4676 944.988 47.7068 941.732C50.0733 940.262 52.4438 938.886 54.7524 937.545C54.9975 937.403 55.2419 937.261 55.4856 937.119C58.0299 935.641 60.4901 934.199 62.8133 932.696C66.454 930.34 72.95 924.252 81.1601 915.809C89.3386 907.4 99.1377 896.74 109.355 885.325C129.79 862.498 151.875 836.68 165.974 819.873C166.246 819.548 166.695 819.43 167.092 819.58C167.49 819.73 167.749 820.114 167.739 820.539C166.85 859.304 165.606 948.668 167.739 996.122C168.799 1019.7 178.063 1052.14 189.569 1083.89C201.064 1115.61 214.757 1146.53 224.604 1167.03L225.292 1168.47ZM153.631 855.192C154.045 854.608 154.456 854.022 154.866 853.435C154.774 854.131 154.683 854.841 154.592 855.565C150.077 891.549 147.03 961.565 152.22 1000.07C161.821 1071.29 177.614 1107.66 192.753 1142.52C196.337 1150.77 199.885 1158.94 203.305 1167.47H223.702C223.544 1167.14 223.384 1166.8 223.223 1166.47C203.425 1125.08 168.857 1043.28 166.74 996.166C164.634 949.316 165.817 861.686 166.704 822.114C166.716 821.572 166.728 821.039 166.74 820.516C166.402 820.919 166.059 821.327 165.712 821.74C137.098 855.804 78.1889 923.938 63.3565 933.535C60.786 935.199 58.055 936.784 55.2549 938.41C37.6138 948.652 17.2329 960.485 16.9948 1003.35C16.7944 1039.42 20.1089 1108.98 22.2569 1154.06C22.4758 1158.66 22.6827 1163 22.8724 1167.02H40.807C40.7783 1166.69 40.7493 1166.36 40.72 1166.02C39.8965 1156.59 38.8619 1145.7 37.7503 1133.99C33.8494 1092.91 29.0009 1041.85 29.0009 1009.08C29.0009 966.821 50.3663 954.727 64.8065 946.552C68.4909 944.467 71.7245 942.636 74.0373 940.625C93.6862 923.539 127.156 892.595 153.631 855.192Z" fill="black"/>
<path d="M426.809 452.571L538.744 486.676L543.99 467.438L392.705 342.387L197.695 303.035L209.064 329.269L237.047 363.374L301.759 395.73L426.809 452.571Z" fill="black"/>
<path d="M202.524 530.376L356.725 572.471V560.064C320.242 550.168 244.53 529.933 233.541 528.16C222.552 526.388 208.284 528.899 202.524 530.376Z" fill="black"/>
<path fill-rule="evenodd" clip-rule="evenodd" d="M357.332 573.266C357.084 573.455 356.762 573.518 356.461 573.435L202.261 531.341C201.823 531.221 201.52 530.822 201.524 530.368C201.527 529.914 201.836 529.52 202.276 529.407C208.081 527.918 222.508 525.368 233.7 527.173C239.257 528.069 260.999 533.59 285.827 540.098C310.692 546.617 338.743 554.15 356.986 559.099C357.422 559.217 357.725 559.612 357.725 560.064V572.471C357.725 572.782 357.579 573.076 357.332 573.266ZM356.725 572.471V560.064C320.242 550.168 244.53 529.933 233.541 528.16C223.681 526.57 211.18 528.428 204.555 529.894C203.797 530.062 203.116 530.224 202.524 530.376L356.725 572.471Z" fill="black"/>
<path d="M358.913 936.507L226.863 1167.38H264.763C307.798 1077.91 387.353 911.402 391.41 904.64C397.52 894.457 415.577 887.781 426.911 873.929L444.661 809.972L426.911 787.15L411.127 870.731C402.966 877.476 385.268 892.341 379.764 897.845C374.26 903.349 363.57 925.913 358.913 936.507Z" fill="black"/>
<path fill-rule="evenodd" clip-rule="evenodd" d="M225.998 1167.89C225.819 1167.58 225.818 1167.2 225.995 1166.89L358.019 936.057C360.356 930.744 364.19 922.462 368.132 914.809C370.109 910.972 372.118 907.282 373.984 904.2C375.836 901.14 377.588 898.606 379.057 897.138C384.54 891.655 401.948 877.025 410.212 870.19L425.928 786.965C426.001 786.579 426.294 786.271 426.676 786.178C427.058 786.086 427.459 786.226 427.7 786.536L445.45 809.358C445.644 809.608 445.709 809.935 445.624 810.24L427.874 874.197C427.837 874.331 427.772 874.455 427.685 874.563C421.925 881.602 414.474 886.803 407.804 891.459L407.774 891.481C404.418 893.823 401.271 896.02 398.581 898.262C395.891 900.504 393.712 902.747 392.268 905.155C391.284 906.795 385.581 918.403 376.862 936.4C368.161 954.357 356.492 978.599 343.605 1005.43C332.037 1029.51 319.487 1055.67 307.221 1081.25C292.158 1112.65 277.524 1143.16 265.664 1167.82L265.392 1168.38H226.863C226.506 1168.38 226.177 1168.19 225.998 1167.89ZM411.127 870.731C402.966 877.476 385.268 892.341 379.764 897.845C374.26 903.349 363.57 925.913 358.913 936.507L226.863 1167.38H264.763C276.624 1142.72 291.258 1112.21 306.321 1080.81C345.914 998.264 388.471 909.539 391.41 904.64C394.462 899.554 400.496 895.342 407.183 890.673C413.883 885.997 421.239 880.862 426.911 873.93L444.661 809.972L426.911 787.15L411.127 870.731Z" fill="black"/>
<path d="M330.747 504.527C320.556 512.595 299.254 523.813 289.877 528.413C301.731 524.521 322.887 517.624 337.648 512.49C349.856 508.243 372.68 500.812 396.565 508.774C415.673 515.143 408.773 528.413 413.55 536.375C408.773 539.56 393.766 543.806 383.826 543.806C363.656 543.806 346.671 530.359 330.747 521.513C329.332 522.751 332.871 528.944 358.348 543.806C383.826 558.668 414.258 547.168 426.289 539.56C425.935 535.844 426.714 527.882 413.55 508.774C397.096 484.888 343.486 494.443 330.747 504.527Z" fill="black"/>
<path fill-rule="evenodd" clip-rule="evenodd" d="M346.878 498.06C339.824 499.995 334.163 502.461 331.058 504.92C322.625 511.596 306.655 520.397 296.048 525.863C308.169 521.888 325.084 516.33 337.483 512.017C349.694 507.77 372.663 500.28 396.723 508.3C401.558 509.911 404.788 511.973 406.974 514.313C409.162 516.655 410.272 519.244 410.917 521.858C411.394 523.788 411.62 525.759 411.836 527.641C411.91 528.284 411.983 528.917 412.064 529.534C412.386 531.987 412.841 534.221 413.979 536.118L414.224 536.527L413.828 536.791C411.365 538.433 406.35 540.307 400.751 541.769C395.137 543.234 388.855 544.306 383.826 544.306C373.629 544.306 364.258 540.907 355.467 536.422C351.071 534.18 346.812 531.662 342.664 529.156C341.909 528.701 341.159 528.246 340.412 527.793C337.212 525.852 334.077 523.951 330.982 522.217C330.994 522.428 331.081 522.747 331.32 523.192C331.812 524.105 332.869 525.415 334.8 527.182C338.654 530.707 345.872 535.949 358.6 543.374C371.211 550.73 385.062 551.571 397.282 549.615C409.333 547.686 419.758 543.042 425.765 539.298C425.743 539.021 425.725 538.724 425.706 538.405C425.595 536.548 425.438 533.951 424.246 530.087C422.769 525.304 419.7 518.583 413.138 509.058C409.108 503.208 402.785 499.378 395.316 497.094C387.846 494.809 379.264 494.081 370.775 494.411C362.288 494.742 353.916 496.129 346.878 498.06ZM395.608 496.137C403.216 498.464 409.765 502.398 413.962 508.49C420.564 518.074 423.687 524.887 425.201 529.792C426.433 533.782 426.596 536.509 426.706 538.365C426.732 538.792 426.755 539.173 426.787 539.512L426.816 539.818L426.556 539.982C420.488 543.819 409.809 548.623 397.44 550.603C385.067 552.583 370.964 551.744 358.096 544.238C345.347 536.8 338.057 531.516 334.125 527.92C332.164 526.125 331.01 524.726 330.44 523.666C330.155 523.136 329.997 522.657 329.982 522.234C329.967 521.795 330.108 521.408 330.418 521.137L330.683 520.905L330.99 521.076C334.258 522.891 337.571 524.9 340.937 526.941C341.682 527.393 342.43 527.847 343.181 528.3C347.326 530.804 351.56 533.306 355.922 535.531C364.646 539.982 373.853 543.306 383.826 543.306C388.738 543.306 394.929 542.255 400.498 540.801C405.783 539.421 410.435 537.698 412.88 536.209C411.808 534.224 411.375 531.972 411.072 529.664C410.987 529.013 410.912 528.359 410.836 527.703C410.622 525.839 410.406 523.96 409.946 522.097C409.331 519.601 408.285 517.181 406.243 514.995C404.199 512.807 401.126 510.821 396.407 509.248C372.696 501.345 350.018 508.716 337.812 512.962C324.813 517.483 306.859 523.37 294.662 527.37C293.003 527.913 291.451 528.422 290.033 528.888L289.656 527.964C299.038 523.362 320.294 512.166 330.437 504.135C333.701 501.551 339.519 499.042 346.613 497.095C353.724 495.145 362.171 493.745 370.736 493.412C379.299 493.079 388 493.811 395.608 496.137Z" fill="black"/>
<path d="M89.4179 385.583C104.145 442.286 161.216 450.324 187.911 447.256C157.18 436.899 123.342 437.192 104.427 384.146C92.4135 350.458 65.322 229.282 71.26 226.671C89.4179 218.685 166.336 357.811 195.683 349.115C185.155 340.875 147.606 298.556 128.022 266.238C104.97 228.197 67.3265 200.565 59.9626 203.327C52.5987 206.088 71.0085 314.706 89.4179 385.583Z" fill="black"/>
<path d="M607.009 653.393C609.014 660.521 621.095 670.012 624.825 670.99H629.711L650.037 643.146L642.798 625.326L613.84 622.82C611.377 625.326 605.004 646.265 607.009 653.393Z" fill="black"/>
<path fill-rule="evenodd" clip-rule="evenodd" d="M543.99 573.623H502.905V570.623H543.99V573.623Z" fill="black"/>
</svg>
