<svg width="3639" height="5521" viewBox="0 0 3639 5521" fill="none" xmlns="http://www.w3.org/2000/svg">
<path d="M3638.38 5383.63H144.462L92.7874 5169.3V4715.63L140.821 4470.12L263.577 4374.05L546.454 4080.51L743.932 3883.03V3541.45L701.234 3488.08L509.094 3408.02L381 3263.92L226.22 3045.09L60.7656 2874.3L140.821 2794.25L263.577 2431.32L195.137 1742.82L92.7874 1209.1L140.821 814.148L263.577 744.765L466.392 862.183L786.626 1294.5L1571.59 1717.4L2280.09 284.305L2686.67 614.398L2171.4 2003.21L2451.84 2180.47L2398.47 2431.32L2451.84 2564.75L2659.99 2756.89L2942.87 2874.3L3006.91 2943.69L2793.43 3226.56H2659.99L2617.3 3295.94L2547.91 3359.99H2451.84H1912.78L1944.81 3541.45L2398.47 3957.75L3006.91 4155.23L3279.11 4374.05L3440.37 5281.91L3638.38 5383.63Z" fill="white"/>
<rect x="60.6484" y="5383.64" width="3577.72" height="136.676" fill="black"/>
<rect x="108.391" y="5373.61" width="3399.23" height="146.711" fill="black"/>
<path d="M732.046 3653.02C741.001 3721.67 735.777 3793.56 732.046 3820.92H746.969C750.7 3816.57 760.774 3791.07 771.222 3723.91C781.669 3656.75 759.406 3560.36 746.969 3520.56H711.523C714.633 3536.11 723.09 3584.37 732.046 3653.02Z" fill="black"/>
<path d="M2679.75 4018.14C2192.58 3902.89 1983.22 3533.05 1939.57 3367.16C1939.57 3367.16 1855.62 3367.76 1856.11 3376.44C1866.54 3561.89 2169.37 4008.63 2679.75 4092.17C3093.99 4159.96 3233.95 4300.11 3250.47 4556.36C3261.26 4723.81 3359.06 5264.89 3389.87 5383.64H3638.37C3478.4 5179.13 3406.57 4862.82 3354.18 4574.71C3288.7 4214.57 3288.7 4162.19 2679.75 4018.14Z" fill="black"/>
<path d="M2707.59 2595.15C2786.46 2610.52 2824.96 2694.17 2836.91 2732.15C2845.45 2724.47 2866.97 2699.07 2853.55 2669.42C2829.22 2615.64 2812.58 2598.99 2734.47 2564.42C2690.06 2544.76 2508.27 2517.9 2424.62 2499.12L2442.55 2543.94C2496.32 2555.89 2628.71 2579.79 2707.59 2595.15Z" fill="black"/>
<path d="M2489.62 2222.89C2431.89 2312.86 2361.98 2531.05 2567.94 2665.85C2773.89 2800.66 2921.07 2859.33 2968.92 2871.81C3010.01 2881.69 3072.21 2924.54 2992.32 3016.91C2892.47 3132.37 2803.79 3260.01 2650.88 3260.01C2666.88 3270.91 2668.15 3292.8 2616.3 3324.28C2528.93 3377.33 2494.61 3412.72 2327.66 3404.92C2160.71 3397.12 1925.33 3361.93 1774.84 3416.11C1624.35 3470.29 1532.95 3481.65 1470.75 3557.89C1420.99 3618.89 1267.65 3892.69 1202.1 4022.44H1142.41C1202.6 3877.85 1351.52 3628.59 1423.19 3524.88C1473.28 3452.4 1631.19 3402.73 1728.1 3370.07C1928.75 3302.44 2158.2 3370.07 2327.66 3370.07C2420.7 3370.07 2447.21 3397.67 2576.44 3318.81C2608.62 3299.18 2560.39 3275.76 2515.15 3264.09L1785.51 3097.73C2041.62 3128.37 2498.66 3208.63 2630.44 3208.63C2787.78 3208.63 2884.88 3078.18 2941.27 3007.98C2968.42 2979.45 2988.2 2911.43 2923.03 2897.08C2841.55 2879.13 2631.5 2765.6 2539.96 2705.91C2484.34 2669.64 2267.04 2473.97 2435.97 2179.78L2489.62 2222.89Z" fill="black"/>
<path d="M2045.68 3755.8C2005.01 3757.42 1931.47 3796.5 1962.71 3939.9C1993.94 4083.31 2213.26 4067.48 2319.02 4041.64C2281.6 4264.5 2264.35 4765.44 2494.73 4986.36C2725.11 5207.28 2971.47 5343.28 3065.84 5383.65H2641.15C2509.36 5331.97 2241.9 5118.14 2226.28 4676.3C2211.68 4263.43 2241.41 4125.81 2261.3 4102.95C2176.09 4166.74 1973.59 4113.73 1937.49 4050.36C1890.02 3967.04 1948.06 3841.39 1962.71 3755.8H2045.68Z" fill="black"/>
<path d="M1356.23 3406.36C1482.01 3412.87 1687.83 3394.07 1785.42 3368.77L1775.07 3389.46C1697.36 3410.24 1575.37 3452.26 1482.12 3454.43C1388.86 3456.6 1199 3412.69 1147.49 3381.96C1164.66 3387.38 1230.44 3399.85 1356.23 3406.36Z" fill="black"/>
<path d="M739.495 3524.09C767.08 3527.27 974.292 3883.32 1093.96 4042.72H1170.44L794.165 3475.59C700.354 3451.18 540.128 3478.41 389.379 3216.24C302.461 3065.08 179.433 2918.04 112.513 2867.2C167.624 2822.77 289.497 2670.44 289.497 2405.57C289.497 2065.45 293.001 2000.93 191.367 1502C89.7325 1003.06 140.257 620.817 410.407 882.155C642.19 1106.38 969.295 1617.82 1087.26 1685.23C1269.12 1789.15 1810 2053.68 1952.82 2093.07C2056.5 2121.66 2332.37 2207.74 2459.17 2241.58L2465.22 2219.11C2355.82 2192.12 2102.13 2124.08 1962.52 2067.78C1788 1997.41 1297.47 1751.36 1115.24 1659.63C946.484 1574.68 799.981 1130.44 422.79 772.95C45.5997 415.464 0.5625 1231.77 99.0819 1502C197.601 1772.22 200.417 2081.86 206.046 2405.57C210.55 2664.53 70.9337 2821.23 0.5625 2867.2C39.9705 2890.66 156.506 2996.69 307.382 3233.13C495.977 3528.69 705.014 3520.11 739.495 3524.09Z" fill="black"/>
<path d="M1210.06 19.5558C1373.67 -14.8882 1804.22 -26.9433 2217.55 200.386C2630.87 427.715 2768.65 587.878 2785.87 639.544L2355.32 1802.02L1554.5 1560.92L813.961 1250.92L1210.06 19.5558ZM2048.02 1638.97L2123.17 1665.08L2205.27 1693.17L2620.21 620.998C2620.21 620.998 2579.33 586.211 2537.3 553.83C2501.19 526.005 2465.2 501.527 2456.53 495.379L2048.02 1638.97ZM1954.04 1574.76H2004.95L2419.33 470.483C2419.33 470.483 2410.79 464.359 2391.6 452.418C2379.93 445.153 2365.18 435.583 2365.18 435.583L1954.04 1574.76Z" fill="black"/>
<path fill-rule="evenodd" clip-rule="evenodd" d="M1974.9 2915.29C2139.31 2915.29 2258.77 2763.21 2258.77 2574.5C2258.77 2385.79 2157.08 2244.71 1986.69 2225.47C1810.8 2213.1 1683 2378.62 1683 2567.33C1683 2756.04 1810.49 2915.29 1974.9 2915.29ZM1974.9 2956.09C2173.38 2956.09 2334.27 2782.03 2334.27 2567.33C2334.27 2352.62 2173.38 2178.57 1974.9 2178.57C1776.43 2178.57 1615.53 2352.62 1615.53 2567.33C1615.53 2782.03 1776.43 2956.09 1974.9 2956.09Z" fill="black"/>
<path d="M753.555 3847.71V4023.43L946.324 4211.08C945.187 4225.29 946.061 4267.16 954.854 4310.02C968.501 4376.55 1016.27 4434.55 1016.27 4434.55C1000.35 4446.5 955.877 4497.33 905.382 4605.15C854.886 4712.96 851.361 4930.98 855.91 5026.51L1030.02 5383.62L1357.45 4876.39C1348.35 4838.29 1324.36 4737.53 1301.16 4639.27L1215.86 4434.55C1233.49 4409.53 1258.51 4366.32 1278.98 4320.26C1292.69 4289.41 1311.39 4229.84 1311.39 4190.61L1893.11 4002.95L1980.63 3633.38C1784.45 3760.76 1494.93 4023.43 1174.21 4023.43C892.546 4023.43 816.673 3965.42 753.555 3847.71Z" fill="black"/>
<path fill-rule="evenodd" clip-rule="evenodd" d="M2780.14 2812.96C2816.4 2766.21 2837.83 2700.23 2842.82 2621.16C2847.82 2542.09 2841.95 2460.75 2811.87 2409.81C2781.65 2358.63 2744.49 2335.01 2703.54 2332.43C2662.58 2329.84 2614.6 2352.01 2578.18 2398.97C2541.93 2445.73 2518.95 2521.09 2513.95 2600.16C2508.96 2679.23 2523.07 2747.19 2553.15 2798.14C2583.37 2849.31 2623.58 2876.37 2664.54 2878.96C2705.5 2881.55 2743.73 2859.92 2780.14 2812.96ZM2661.96 2919.77C2778.96 2927.16 2882.63 2793.47 2893.51 2621.16C2904.4 2448.85 2818.38 2303.18 2701.38 2295.79C2584.38 2288.4 2480.71 2422.09 2469.83 2594.4C2458.94 2766.7 2544.96 2912.38 2661.96 2919.77Z" fill="black"/>
<path d="M760.381 4583.57C770.208 4802.2 939.268 5194.59 1030.02 5383.61L931.803 5383.76C849.563 5178.72 748.2 5007.05 693.54 4601.55C669.164 4420.71 684.251 4088.93 705.721 3926.5C582.984 4102.31 425.488 4248 333.62 4327.88C281.243 4373.43 126.293 4398.84 126.293 4643.02C126.293 4838.36 134.773 5188.53 151.688 5383.67H60.6484C60.6484 5186.08 69.9509 4809.47 71.022 4616.66C72.2925 4387.98 198.063 4351.14 284.451 4295.24C353.561 4250.53 630.533 3929.75 760.381 3774.95C756.286 3953.39 750.553 4364.94 760.381 4583.57Z" fill="black"/>
<path d="M781.266 1255.72C1086.5 1199.18 1472.26 1197.81 1841.79 1408.75C2376.5 1713.97 2671.44 2162.84 2660.03 2349.06L2478.7 2216.52L2472.89 2237.81L1957.6 2080.81L1381.92 1819.14L1084.02 1670.19L955.194 1513.18L926.091 1470.63C910.126 1452.89 907.164 1434.59 899.346 1432.68L781.266 1255.72Z" fill="black"/>
<path d="M925.117 2439.16L1634.99 2632.95V2575.83C1467.04 2530.28 1118.5 2437.12 1067.91 2428.96C1017.32 2420.8 951.635 2432.36 925.117 2439.16Z" fill="black"/>
<path d="M1645.01 4308.87L1030.02 5383.61H1206.29C1404.41 4971.71 1775.93 4193.29 1794.61 4162.16C1822.73 4115.29 1905.86 4084.55 1958.04 4020.78L2039.75 3726.35L1958.04 3621.29L1885.38 4006.06C1847.81 4037.11 1766.33 4105.54 1740.99 4130.88C1715.66 4156.22 1666.45 4260.09 1645.01 4308.87Z" fill="black"/>
<path d="M1515.35 2320.26C1468.44 2357.4 1370.37 2409.04 1327.2 2430.22C1381.77 2412.3 1479.17 2380.55 1547.12 2356.92C1603.32 2337.37 1708.39 2303.16 1818.35 2339.81C1906.31 2369.13 1874.55 2430.22 1896.54 2466.87C1874.55 2481.53 1805.46 2501.08 1759.7 2501.08C1666.85 2501.08 1588.66 2439.18 1515.35 2398.46C1508.84 2404.16 1525.13 2432.66 1642.42 2501.08C1759.7 2569.5 1899.8 2516.56 1955.18 2481.53C1953.56 2464.43 1957.14 2427.78 1896.54 2339.81C1820.79 2229.85 1574 2273.84 1515.35 2320.26Z" fill="black"/>
<path d="M404.432 1772.48C472.231 2033.51 734.96 2070.51 857.849 2056.39C716.377 2008.71 560.604 2010.06 473.526 1765.86C418.223 1610.77 293.506 1052.94 320.842 1040.91C404.432 1004.15 758.528 1644.62 893.628 1604.59C845.163 1566.66 672.304 1371.84 582.148 1223.06C476.027 1047.94 302.733 920.737 268.833 933.449C234.933 946.162 319.683 1446.19 404.432 1772.48Z" fill="black"/>
<path d="M2787.21 3005.51C2796.44 3038.33 2852.06 3082.02 2869.23 3086.52H2891.73L2985.3 2958.34L2951.97 2876.31L2818.66 2864.77C2807.32 2876.31 2777.98 2972.7 2787.21 3005.51Z" fill="black"/>
<path fill-rule="evenodd" clip-rule="evenodd" d="M2497.05 2638.26H2307.91V2624.45H2497.05V2638.26Z" fill="black"/>
</svg>
