<svg width="3867" height="5521" viewBox="0 0 3867 5521" fill="none" xmlns="http://www.w3.org/2000/svg">
<path d="M3451.53 5298.63L111.862 5326.07L100.102 4557.75L151.684 4425.84L343.55 4287.94L733.284 3860.71L753.011 3728.87L720.93 3493.6L514.184 3422.31L100.102 2916.14V2834.16L225.535 2543.02V1833.54L100.102 1131.89L131.46 853.587L225.535 735.992L417.606 818.31L786.067 1280.84L1708.25 1768.8L2292.19 318.711L2693.91 606.512L2201.14 2029.61L2467.66 2170.64L2401.03 2319.59V2480.3L2499.02 2644.93L2879.24 2860.52L2949.8 3025.15L2781.25 3201.54L2628.37 3228.97V3291.69L2546.06 3358.33L2436.3 3389.68L1903.21 3358.33L2032.56 3648.39L2436.3 3977.66L3028.19 4154.05L3243.78 4318.68L3451.53 5298.63Z" fill="white"/>
<rect x="0.9375" y="5384.12" width="3866.02" height="136.676" fill="black"/>
<path d="M796.842 3653.5C805.798 3722.16 800.574 3794.04 796.842 3821.41H811.766C815.497 3817.05 825.571 3791.56 836.019 3724.39C846.466 3657.23 824.203 3560.85 811.766 3521.05H776.32C779.43 3536.59 787.887 3584.85 796.842 3653.5Z" fill="black"/>
<path d="M2744.55 4018.61C2257.38 3903.37 2048.02 3533.52 2004.36 3367.64C2004.36 3367.64 1920.42 3368.24 1920.91 3376.92C1931.34 3562.37 2234.17 4009.11 2744.55 4092.64C3158.79 4160.44 3298.74 4300.59 3315.26 4556.84C3326.06 4724.28 3423.86 5265.36 3454.67 5384.12H3703.16C3543.2 5179.61 3471.36 4863.3 3418.98 4575.19C3353.5 4215.05 3353.5 4162.67 2744.55 4018.61Z" fill="black"/>
<path d="M2772.38 2595.63C2851.26 2611 2889.76 2694.65 2901.71 2732.63C2910.24 2724.95 2931.77 2699.56 2918.35 2669.9C2894.02 2616.12 2877.38 2599.47 2799.27 2564.9C2754.86 2545.25 2573.07 2518.38 2489.41 2499.6L2507.34 2544.42C2561.12 2556.37 2693.51 2580.27 2772.38 2595.63Z" fill="black"/>
<path d="M2554.41 2223.37C2496.69 2313.34 2426.78 2531.53 2632.73 2666.34C2838.69 2801.14 2985.87 2859.81 3033.72 2872.29C3074.8 2882.17 3137.01 2925.02 3057.12 3017.39C2957.27 3132.85 2868.58 3260.49 2715.68 3260.49C2731.68 3271.39 2732.95 3293.28 2681.1 3324.76C2593.73 3377.81 2559.4 3413.2 2392.46 3405.4C2225.51 3397.6 1990.12 3362.41 1839.64 3416.59C1689.15 3470.77 1597.75 3482.13 1535.55 3558.37C1485.78 3619.37 1332.45 3893.17 1266.9 4022.92H1207.2C1267.39 3878.33 1416.32 3629.07 1487.99 3525.36C1538.08 3452.88 1695.99 3403.21 1792.89 3370.55C1993.54 3302.92 2222.99 3370.55 2392.46 3370.55C2485.49 3370.55 2512.01 3398.15 2641.24 3319.29C2673.42 3299.66 2625.19 3276.24 2579.95 3264.57L1850.31 3098.21C2106.41 3128.85 2563.46 3209.11 2695.23 3209.11C2852.58 3209.11 2949.68 3078.66 3006.06 3008.46C3033.22 2979.93 3053 2911.91 2987.82 2897.56C2906.35 2879.61 2696.3 2766.08 2604.76 2706.39C2549.14 2670.12 2331.84 2474.45 2500.77 2180.26L2554.41 2223.37Z" fill="black"/>
<path d="M2110.48 3756.28C2069.8 3757.9 1996.27 3796.98 2027.5 3940.38C2058.74 4083.78 2278.06 4067.96 2383.81 4042.12C2346.39 4264.98 2329.15 4765.92 2559.53 4986.84C2789.91 5207.76 3036.27 5343.75 3130.63 5384.12H2705.95C2574.16 5332.45 2306.7 5118.61 2291.08 4676.78C2276.48 4263.9 2306.21 4126.29 2326.1 4103.43C2240.89 4167.22 2038.39 4114.21 2002.29 4050.84C1954.82 3967.51 2012.86 3841.87 2027.5 3756.28H2110.48Z" fill="black"/>
<path d="M1421.02 3406.84C1546.81 3413.34 1752.63 3394.55 1850.21 3369.25L1839.87 3389.94C1762.16 3410.72 1640.16 3452.74 1546.91 3454.91C1453.66 3457.08 1263.8 3413.16 1212.29 3382.44C1229.46 3387.86 1295.24 3400.33 1421.02 3406.84Z" fill="black"/>
<path d="M804.292 3524.57C831.877 3527.75 1039.09 3883.8 1158.75 4043.2H1235.24L858.962 3476.07C765.15 3451.66 604.925 3478.89 454.176 3216.72C367.258 3065.56 244.23 2918.52 177.31 2867.68C232.421 2823.25 354.294 2670.92 354.294 2406.05C354.294 2065.93 357.798 2001.41 256.164 1502.48C154.529 1003.55 205.054 621.297 475.204 882.635C706.987 1106.86 1034.09 1618.3 1152.05 1685.71C1333.92 1789.63 1874.8 2054.16 2017.62 2093.55C2121.3 2122.14 2397.17 2208.22 2523.96 2242.06L2530.01 2219.59C2420.62 2192.6 2166.93 2124.56 2027.31 2068.26C1852.79 1997.89 1362.26 1751.84 1180.04 1660.11C1011.28 1575.16 864.778 1130.92 487.587 773.431C110.397 415.944 65.3594 1232.25 163.879 1502.48C262.398 1772.71 265.214 2082.34 270.843 2406.05C275.347 2665.01 135.731 2821.71 65.3594 2867.68C104.767 2891.14 221.303 2997.17 372.179 3233.62C560.774 3529.18 769.811 3520.59 804.292 3524.57Z" fill="black"/>
<path d="M1274.86 20.0362C1438.47 -14.4077 1869.02 -26.4628 2282.34 200.866C2695.67 428.195 2833.44 588.359 2850.67 640.025L2420.12 1802.5L1619.3 1561.4L878.758 1251.4L1274.86 20.0362ZM2112.81 1639.45L2187.97 1665.56L2270.07 1693.65L2685.01 621.479C2685.01 621.479 2644.13 586.691 2602.1 554.31C2565.99 526.485 2529.99 502.007 2521.33 495.859L2112.81 1639.45ZM2018.84 1575.24H2069.75L2484.13 470.964C2484.13 470.964 2475.58 464.84 2456.4 452.898C2444.73 445.634 2429.97 436.063 2429.97 436.063L2018.84 1575.24Z" fill="black"/>
<path fill-rule="evenodd" clip-rule="evenodd" d="M2039.7 2915.77C2204.11 2915.77 2323.56 2763.69 2323.56 2574.98C2323.56 2386.27 2221.88 2245.19 2051.48 2225.95C1875.6 2213.58 1747.8 2379.1 1747.8 2567.81C1747.8 2756.52 1875.29 2915.77 2039.7 2915.77ZM2039.7 2956.57C2238.17 2956.57 2399.07 2782.51 2399.07 2567.81C2399.07 2353.1 2238.17 2179.05 2039.7 2179.05C1841.22 2179.05 1680.33 2353.1 1680.33 2567.81C1680.33 2782.51 1841.22 2956.57 2039.7 2956.57Z" fill="black"/>
<path d="M818.352 3848.2V4023.91L1011.12 4211.56C1009.98 4225.78 1010.86 4267.64 1019.65 4310.51C1033.3 4377.04 1081.06 4435.04 1081.06 4435.04C1065.14 4446.98 1020.67 4497.82 970.179 4605.63C919.683 4713.45 916.157 4931.46 920.707 5027L1094.82 5384.1L1422.25 4876.88C1413.15 4838.78 1389.15 4738.01 1365.95 4639.75L1280.66 4435.04C1298.29 4410.02 1323.31 4366.8 1343.78 4320.74C1357.49 4289.89 1376.19 4230.33 1376.19 4191.09L1957.91 4003.44L2045.43 3633.87C1849.25 3761.24 1559.72 4023.91 1239.01 4023.91C957.343 4023.91 881.47 3965.91 818.352 3848.2Z" fill="black"/>
<path fill-rule="evenodd" clip-rule="evenodd" d="M2844.94 2813.44C2881.19 2766.69 2902.62 2700.72 2907.62 2621.65C2912.61 2542.58 2906.75 2461.23 2876.67 2410.29C2846.45 2359.12 2809.29 2335.5 2768.33 2332.91C2727.38 2330.32 2679.39 2352.5 2642.98 2399.46C2606.72 2446.21 2583.75 2521.58 2578.75 2600.65C2573.76 2679.72 2587.87 2747.68 2617.95 2798.62C2648.16 2849.79 2688.38 2876.86 2729.34 2879.45C2770.29 2882.03 2808.52 2860.41 2844.94 2813.44ZM2726.76 2920.25C2843.76 2927.65 2947.42 2793.95 2958.31 2621.65C2969.19 2449.34 2883.17 2303.66 2766.18 2296.27C2649.18 2288.88 2545.51 2422.57 2534.63 2594.88C2523.74 2767.19 2609.76 2912.86 2726.76 2920.25Z" fill="black"/>
<path d="M825.178 4584.05C835.005 4802.68 1004.07 5195.07 1094.82 5384.09L996.6 5384.23C914.36 5179.19 812.996 5007.53 758.337 4602.03C733.961 4421.19 749.048 4089.4 770.518 3926.97C647.78 4102.79 490.285 4248.47 398.417 4328.36C346.04 4373.9 191.09 4399.32 191.09 4643.5C191.09 4838.84 199.57 5189 216.484 5384.14H125.445C125.445 5186.55 134.748 4809.95 135.819 4617.14C137.089 4388.46 262.86 4351.62 349.248 4295.72C418.358 4251 695.33 3930.23 825.178 3775.43C821.083 3953.87 815.35 4365.41 825.178 4584.05Z" fill="black"/>
<path d="M846.062 1256.2C1151.3 1199.66 1537.06 1198.29 1906.59 1409.23C2441.3 1714.45 2736.23 2163.32 2724.82 2349.54L2543.5 2217L2537.69 2238.29L2022.39 2081.29L1446.72 1819.62L1148.81 1670.67L1019.99 1513.66L990.888 1471.11C974.923 1453.37 971.961 1435.07 964.143 1433.17L846.062 1256.2Z" fill="black"/>
<path d="M989.914 2439.65L1699.78 2633.43V2576.32C1531.84 2530.76 1183.29 2437.61 1132.7 2429.45C1082.12 2421.29 1016.43 2432.85 989.914 2439.65Z" fill="black"/>
<path d="M1709.8 4309.35L1094.82 5384.1H1271.09C1469.2 4972.19 1840.73 4193.77 1859.4 4162.64C1887.53 4115.77 1970.66 4085.03 2022.83 4021.27L2104.55 3726.83L2022.83 3621.77L1950.17 4006.54C1912.6 4037.59 1831.13 4106.02 1805.79 4131.36C1780.45 4156.7 1731.24 4260.57 1709.8 4309.35Z" fill="black"/>
<path d="M1580.15 2320.74C1533.24 2357.88 1435.17 2409.52 1392 2430.7C1446.57 2412.78 1543.96 2381.03 1611.92 2357.4C1668.12 2337.85 1773.19 2303.64 1883.15 2340.29C1971.11 2369.61 1939.35 2430.7 1961.34 2467.35C1939.35 2482.01 1870.26 2501.56 1824.5 2501.56C1731.65 2501.56 1653.46 2439.66 1580.15 2398.94C1573.63 2404.64 1589.92 2433.14 1707.21 2501.56C1824.5 2569.98 1964.6 2517.04 2019.98 2482.01C2018.35 2464.91 2021.94 2428.26 1961.34 2340.29C1885.59 2230.33 1638.79 2274.32 1580.15 2320.74Z" fill="black"/>
<path d="M469.229 1772.96C537.028 2033.99 799.756 2071 922.646 2056.87C781.174 2009.19 625.401 2010.54 538.322 1766.34C483.02 1611.25 358.302 1053.42 385.638 1041.39C469.229 1004.63 823.325 1645.1 958.425 1605.08C909.96 1567.14 737.101 1372.32 646.945 1223.54C540.824 1048.42 367.53 921.217 333.63 933.93C299.73 946.642 384.48 1446.67 469.229 1772.96Z" fill="black"/>
<path d="M2852.01 3005.99C2861.24 3038.81 2916.86 3082.5 2934.03 3087H2956.52L3050.09 2958.82L3016.77 2876.79L2883.46 2865.25C2872.12 2876.79 2842.78 2973.18 2852.01 3005.99Z" fill="black"/>
<path fill-rule="evenodd" clip-rule="evenodd" d="M2561.84 2638.74H2372.7V2624.93H2561.84V2638.74Z" fill="black"/>
</svg>
