<svg width="193" height="325" viewBox="0 0 193 325" fill="none" xmlns="http://www.w3.org/2000/svg">
<path d="M135.137 11.8467C153.74 4.37598 172.856 0.640625 192.485 0.640625V1.2998C176.226 1.2998 161.504 5.25488 148.32 13.165C135.137 21.0752 123.931 32.2812 114.702 46.7832C105.327 61.1387 98.1494 78.2773 93.1689 98.1992C88.1885 118.121 85.6982 140.167 85.6982 164.337C85.6982 195.245 89.2139 222.711 96.2451 246.734C103.276 270.611 114.482 289.361 129.863 302.984C145.098 316.607 165.093 323.419 189.849 323.419V324.078C166.704 324.078 145.757 319.903 127.007 311.554C108.257 303.058 92.1436 291.339 78.667 276.397C65.0439 261.456 60.8314 250.815 49.5327 214.662C38.234 178.508 0.353409 164.337 0.353409 164.337C0.353409 164.337 37.8843 136.943 49.5327 102.325C61.1812 67.7071 70.0977 57.8428 85.0391 43.9268C99.834 29.8643 116.533 19.1709 135.137 11.8467Z" fill="black"/>
</svg>
